<svg width="1372" height="767" viewBox="0 0 1372 767" fill="none" xmlns="http://www.w3.org/2000/svg">
<rect x="121" width="40.0812" height="40.1187" fill="#0E0E10"/>
<rect x="242" y="161.232" width="40.0812" height="40.1187" fill="#0E0E10"/>
<rect x="363" y="242.226" width="40.0812" height="40.1187" fill="#0E0E10"/>
<rect x="1290.92" y="40.1187" width="40.0812" height="40.1187" fill="#0E0E10"/>
<rect x="1169.92" y="120.356" width="40.0812" height="40.1187" fill="#0E0E10"/>
<path d="M1250.08 242.226H1290.16V282.345H1250.08V242.226Z" fill="#0E0E10"/>
<rect x="1089" y="322.464" width="40.0812" height="40.1187" fill="#0E0E10"/>
<rect x="1210" y="403.458" width="40.0812" height="40.1187" fill="#0E0E10"/>
<rect x="1331" y="484.453" width="40.0812" height="40.1187" fill="#0E0E10"/>
<rect x="1169.92" y="685.803" width="40.0812" height="40.1187" fill="#0E0E10"/>
<rect x="121" y="403.458" width="40.0812" height="40.1187" fill="#0E0E10"/>
<rect x="242" y="484.453" width="40.0812" height="40.1187" fill="#0E0E10"/>
<rect x="80.9187" y="604.809" width="40.0812" height="40.1187" fill="#0E0E10"/>
<rect y="726.679" width="40.0812" height="40.1187" fill="#0E0E10"/>
<rect x="363" y="403.458" width="40.0812" height="40.1187" fill="#0E0E10"/>
</svg>
