<svg width="1452" height="1455" viewBox="0 0 1452 1455" fill="none" xmlns="http://www.w3.org/2000/svg">
<line x1="1452" y1="0.500122" x2="0.000122027" y2="0.499995" stroke="#131316"/>
<line x1="1452" y1="40.8712" x2="0.000122027" y2="40.8711" stroke="#131316"/>
<line x1="1452" y1="81.2422" x2="0.000122027" y2="81.2421" stroke="#131316"/>
<line x1="1452" y1="121.613" x2="0.000122027" y2="121.613" stroke="#131316"/>
<line x1="1452" y1="161.984" x2="0.000122027" y2="161.984" stroke="#131316"/>
<line x1="1452" y1="202.355" x2="0.000122027" y2="202.355" stroke="#131316"/>
<line x1="1452" y1="242.727" x2="0.000122027" y2="242.726" stroke="#131316"/>
<line x1="1452" y1="283.098" x2="0.000122027" y2="283.097" stroke="#131316"/>
<line x1="1452" y1="323.469" x2="0.000122027" y2="323.468" stroke="#131316"/>
<line x1="1452" y1="363.84" x2="0.000122027" y2="363.84" stroke="#131316"/>
<line x1="1452" y1="404.211" x2="0.000122027" y2="404.211" stroke="#131316"/>
<line x1="1452" y1="444.582" x2="0.000122027" y2="444.582" stroke="#131316"/>
<line x1="1452" y1="484.953" x2="0.000122027" y2="484.953" stroke="#131316"/>
<line x1="1452" y1="525.324" x2="0.000122027" y2="525.324" stroke="#131316"/>
<line x1="1452" y1="565.695" x2="0.000122027" y2="565.695" stroke="#131316"/>
<line x1="1452" y1="606.066" x2="0.000122027" y2="606.066" stroke="#131316"/>
<line x1="1452" y1="646.437" x2="0.000122027" y2="646.437" stroke="#131316"/>
<line x1="1452" y1="686.808" x2="0.000122027" y2="686.808" stroke="#131316"/>
<line x1="1452" y1="727.179" x2="0.000122027" y2="727.179" stroke="#131316"/>
<line x1="1452" y1="767.55" x2="0.000122027" y2="767.55" stroke="#131316"/>
<line x1="1452" y1="807.921" x2="0.000122027" y2="807.921" stroke="#131316"/>
<line x1="1452" y1="848.292" x2="0.000122027" y2="848.292" stroke="#131316"/>
<line x1="1452" y1="888.663" x2="0.000122027" y2="888.663" stroke="#131316"/>
<line x1="1452" y1="929.034" x2="0.000122027" y2="929.034" stroke="#131316"/>
<line x1="1452" y1="969.405" x2="0.000122027" y2="969.405" stroke="#131316"/>
<line x1="1452" y1="1009.78" x2="0.000122027" y2="1009.78" stroke="#131316"/>
<line x1="1452" y1="1050.15" x2="0.000122027" y2="1050.15" stroke="#131316"/>
<line x1="1452" y1="1090.52" x2="0.000122027" y2="1090.52" stroke="#131316"/>
<line x1="1452" y1="1130.89" x2="0.000122027" y2="1130.89" stroke="#131316"/>
<line x1="1452" y1="1171.26" x2="0.000122027" y2="1171.26" stroke="#131316"/>
<line x1="1452" y1="1211.63" x2="0.000122027" y2="1211.63" stroke="#131316"/>
<line x1="1452" y1="1252" x2="0.000122027" y2="1252" stroke="#131316"/>
<line x1="1452" y1="1292.37" x2="0.000122027" y2="1292.37" stroke="#131316"/>
<line x1="1452" y1="1332.75" x2="0.000122027" y2="1332.74" stroke="#131316"/>
<line x1="1452" y1="1373.12" x2="0.000122027" y2="1373.12" stroke="#131316"/>
<line x1="1452" y1="1413.49" x2="0.000122027" y2="1413.49" stroke="#131316"/>
<line x1="1452" y1="1453.86" x2="0.000122027" y2="1453.86" stroke="#131316"/>
</svg>
