<svg width="1453" height="816" viewBox="0 0 1453 816" fill="none" xmlns="http://www.w3.org/2000/svg">
<line x1="0.5" y1="2.18557e-08" x2="0.499964" y2="816" stroke="#131316"/>
<line x1="40.8335" y1="2.18557e-08" x2="40.8335" y2="816" stroke="#131316"/>
<line x1="81.1665" y1="2.18557e-08" x2="81.1665" y2="816" stroke="#131316"/>
<line x1="121.5" y1="2.18557e-08" x2="121.5" y2="816" stroke="#131316"/>
<line x1="161.833" y1="2.18557e-08" x2="161.833" y2="816" stroke="#131316"/>
<line x1="202.167" y1="2.18557e-08" x2="202.166" y2="816" stroke="#131316"/>
<line x1="242.5" y1="2.18557e-08" x2="242.5" y2="816" stroke="#131316"/>
<line x1="282.833" y1="2.18557e-08" x2="282.833" y2="816" stroke="#131316"/>
<line x1="323.167" y1="2.18557e-08" x2="323.166" y2="816" stroke="#131316"/>
<line x1="363.5" y1="2.18557e-08" x2="363.5" y2="816" stroke="#131316"/>
<line x1="403.833" y1="2.18557e-08" x2="403.833" y2="816" stroke="#131316"/>
<line x1="444.167" y1="2.18557e-08" x2="444.166" y2="816" stroke="#131316"/>
<line x1="484.5" y1="2.18557e-08" x2="484.5" y2="816" stroke="#131316"/>
<line x1="524.833" y1="2.18557e-08" x2="524.833" y2="816" stroke="#131316"/>
<line x1="565.167" y1="2.18557e-08" x2="565.167" y2="816" stroke="#131316"/>
<line x1="605.5" y1="2.18557e-08" x2="605.5" y2="816" stroke="#131316"/>
<line x1="645.833" y1="2.18557e-08" x2="645.833" y2="816" stroke="#131316"/>
<line x1="686.167" y1="2.18557e-08" x2="686.166" y2="816" stroke="#131316"/>
<line x1="726.5" y1="2.18557e-08" x2="726.5" y2="816" stroke="#131316"/>
<line x1="766.833" y1="2.18557e-08" x2="766.833" y2="816" stroke="#131316"/>
<line x1="807.167" y1="2.18557e-08" x2="807.166" y2="816" stroke="#131316"/>
<line x1="847.5" y1="2.18557e-08" x2="847.5" y2="816" stroke="#131316"/>
<line x1="887.833" y1="2.18557e-08" x2="887.833" y2="816" stroke="#131316"/>
<line x1="928.167" y1="2.18557e-08" x2="928.166" y2="816" stroke="#131316"/>
<line x1="968.5" y1="2.18557e-08" x2="968.5" y2="816" stroke="#131316"/>
<line x1="1008.83" y1="2.18557e-08" x2="1008.83" y2="816" stroke="#131316"/>
<line x1="1049.17" y1="2.18557e-08" x2="1049.17" y2="816" stroke="#131316"/>
<line x1="1089.5" y1="2.18557e-08" x2="1089.5" y2="816" stroke="#131316"/>
<line x1="1129.83" y1="2.18557e-08" x2="1129.83" y2="816" stroke="#131316"/>
<line x1="1170.17" y1="2.18557e-08" x2="1170.17" y2="816" stroke="#131316"/>
<line x1="1210.5" y1="2.18557e-08" x2="1210.5" y2="816" stroke="#131316"/>
<line x1="1250.83" y1="2.18557e-08" x2="1250.83" y2="816" stroke="#131316"/>
<line x1="1291.17" y1="2.18557e-08" x2="1291.17" y2="816" stroke="#131316"/>
<line x1="1331.5" y1="2.18557e-08" x2="1331.5" y2="816" stroke="#131316"/>
<line x1="1371.83" y1="2.18557e-08" x2="1371.83" y2="816" stroke="#131316"/>
<line x1="1412.17" y1="2.18557e-08" x2="1412.17" y2="816" stroke="#131316"/>
<line x1="1452.5" y1="2.18557e-08" x2="1452.5" y2="816" stroke="#131316"/>
</svg>
